<svg fill="#FFF" xmlns="http://www.w3.org/2000/svg" width="183.441" height="184" viewBox="0 0 183.441 184">
  <g id="Grupo_3" data-name="Grupo 3" transform="translate(-56 -528)">
    <g id="cv" transform="translate(56 528)">
      <g id="Grupo_1" data-name="Grupo 1" transform="translate(0 0)">
        <g id="Grupo_4" data-name="Grupo 4" transform="translate(-3.324)">
          <path id="Caminho_4" data-name="Caminho 4" d="M289.743,85.464a10.111,10.111,0,0,1,5.681,1.734,3.4,3.4,0,0,0,3.806-5.634,16.965,16.965,0,1,0-9.487,31.029,14.075,14.075,0,0,0,11.151-5.045,3.4,3.4,0,1,0-5.21-4.368,7.287,7.287,0,0,1-5.94,2.614,10.165,10.165,0,1,1,0-20.33Z" transform="translate(-173.455 -60.665)"/>
          <path id="Caminho_5" data-name="Caminho 5" d="M368.908,112.592h.027a4.022,4.022,0,0,0,3.779-2.743l8.858-26.665a3.4,3.4,0,0,0-6.453-2.144L368.85,99.913l-6.583-18.965a3.4,3.4,0,0,0-6.423,2.229l9.284,26.745A4.015,4.015,0,0,0,368.908,112.592Z" transform="translate(-218.778 -60.662)"/>
        </g>
        <path id="Caminho_11" data-name="Caminho 11" d="M329.868,197.915H266.111a3.4,3.4,0,1,0,0,6.8h63.757a3.4,3.4,0,0,0,0-6.8Z" transform="translate(-169.712 -36.714)"/>
        <path id="Caminho_12" data-name="Caminho 12" d="M233.623,50.759c1.877,0,3.4,1.717,3.4.228V10.318C237.023,4.629,231.187,0,224.013,0H66.591c-7.174,0-13.01,4.629-13.01,10.318V173.682c0,5.689,5.836,10.318,13.01,10.318H224.012c7.174,0,13.01-4.629,13.01-10.318V47.741s-1.522-2.7-3.4-2.7-3.4,1.207-3.4,2.7V173.682c0,2.716-2.786,4.926-6.211,4.926H137.369V5.392h86.643c3.425,0,6.211,2.209,6.211,4.926V52.077C230.224,53.566,231.746,50.759,233.623,50.759ZM130.57,178.608H66.591c-3.425,0-6.211-2.209-6.211-4.926V10.318c0-2.716,2.786-4.926,6.211-4.926H130.57Z" transform="translate(-53.581 0)"/>
        <path id="Caminho_13" data-name="Caminho 13" d="M113.6,110.526A26.953,26.953,0,1,0,86.65,83.573,27,27,0,0,0,113.6,110.526Zm0-6.8a20.04,20.04,0,0,1-11.8-3.83,13.319,13.319,0,0,1,6.824-6.385,11.7,11.7,0,0,0,9.952,0A13.319,13.319,0,0,1,125.4,99.9,20.036,20.036,0,0,1,113.6,103.727Zm-4.935-20.838a4.935,4.935,0,1,1,4.935,4.935A4.94,4.94,0,0,1,108.669,82.889Zm4.935-19.47a20.145,20.145,0,0,1,16.725,31.387,19.8,19.8,0,0,0-6.46-6.241,11.734,11.734,0,1,0-20.531,0,19.791,19.791,0,0,0-6.46,6.241A20.145,20.145,0,0,1,113.6,63.419Z" transform="translate(-71.666 -38.62)"/>
        <path id="Caminho_14" data-name="Caminho 14" d="M93.8,255.778H133.2a7.351,7.351,0,0,0,7.342-7.342v-9.713a7.35,7.35,0,0,0-7.342-7.342H93.8a7.351,7.351,0,0,0-7.342,7.342v9.713a7.351,7.351,0,0,0,7.342,7.342Zm-.543-17.055a.544.544,0,0,1,.543-.543H133.2a.544.544,0,0,1,.543.543v9.713a.544.544,0,0,1-.543.543H93.8a.544.544,0,0,1-.543-.543Z" transform="translate(-71.561 -150.49)"/>
        <path id="Caminho_15" data-name="Caminho 15" d="M93.8,335.29h19.323c1.877,0-1.563-1.522-1.563-3.4s3.44-3.4,1.563-3.4H93.8a.544.544,0,0,1-.543-.543v-9.713a.544.544,0,0,1,.543-.543H133.2a.544.544,0,0,1,.543.543v9.713a.544.544,0,0,1-.543.543H113.124a3.4,3.4,0,1,0,0,6.8H133.2a7.351,7.351,0,0,0,7.342-7.342v-9.713a7.35,7.35,0,0,0-7.342-7.342H93.8a7.351,7.351,0,0,0-7.342,7.342v9.713A7.35,7.35,0,0,0,93.8,335.29Z" transform="translate(-71.561 -198.191)"/>
        <path id="Caminho_16" data-name="Caminho 16" d="M93.8,414.8H133.2a7.351,7.351,0,0,0,7.342-7.342v-9.713a7.35,7.35,0,0,0-7.342-7.342H93.8a7.351,7.351,0,0,0-7.342,7.342v9.713A7.351,7.351,0,0,0,93.8,414.8Zm-.543-17.055a.544.544,0,0,1,.543-.543H133.2a.544.544,0,0,1,.543.543v9.713a.544.544,0,0,1-.543.543H93.8a.544.544,0,0,1-.543-.543Z" transform="translate(-70.459 -246.405)"/>
      </g>
    </g>
    <path id="download" d="M90.887,39.036,77.518,52.409V9.167a9.167,9.167,0,0,0-18.334,0V52.409L45.815,39.036A9.612,9.612,0,1,0,32.223,52.629L67.057,87.463a1.833,1.833,0,0,0,2.592,0l34.834-34.834A9.612,9.612,0,0,0,90.891,39.036Z" transform="translate(116.701 592)"/>
  </g>
</svg>
