<svg fill="#FFF" xmlns="http://www.w3.org/2000/svg" width="124.3" height="99" viewBox="0 0 124.3 99">
  <g id="Grupo_14" data-name="Grupo 14" transform="translate(-56 -445)">
    <g id="Grupo_13" data-name="Grupo 13">
      <g id="Retângulo_2" data-name="Retângulo 2" transform="translate(56 445)" fill="none" stroke="#FFF" stroke-width="8">
        <rect width="94" height="86" rx="23" stroke="none"/>
        <rect x="4" y="4" width="86" height="78" rx="19" fill="none"/>
      </g>
      <g id="Grupo_11" data-name="Grupo 11" transform="translate(72 462.411)">
        <path id="Caminho_4" data-name="Caminho 4" d="M285.573,83.793a7.626,7.626,0,0,1,4.285,1.308,2.564,2.564,0,1,0,2.87-4.249,12.795,12.795,0,1,0-7.155,23.4,10.615,10.615,0,0,0,8.41-3.8,2.564,2.564,0,1,0-3.93-3.294,5.5,5.5,0,0,1-4.48,1.971,7.666,7.666,0,1,1,0-15.333Z" transform="translate(-272.779 -78.665)"/>
        <path id="Caminho_5" data-name="Caminho 5" d="M365.65,104.251h.021a3.033,3.033,0,0,0,2.85-2.069l6.681-20.11a2.564,2.564,0,0,0-4.866-1.617l-4.728,14.233-4.965-14.3a2.564,2.564,0,0,0-4.844,1.681l7,20.171A3.028,3.028,0,0,0,365.65,104.251Z" transform="translate(-327.333 -78.662)"/>
      </g>
      <path id="download" d="M88.842,39.036,75.918,52.409V9.167a8.867,8.867,0,1,0-17.724,0V52.409L45.27,39.036a9.075,9.075,0,0,0-13.141,0,9.847,9.847,0,0,0,0,13.593L65.8,87.463a1.731,1.731,0,0,0,2.506,0l33.675-34.834a9.847,9.847,0,0,0,0-13.593,9.075,9.075,0,0,0-13.141,0Z" transform="translate(75.592 456)"/>
      <path id="Caminho_33" data-name="Caminho 33" d="M133.53,273.165H104.048c-.419,0-.759.9-.759,2s.34,2,.759,2H133.53c.419,0,.759-.9.759-2S133.949,273.165,133.53,273.165Z" transform="translate(-31.289 222.835)"/>
      <path id="Caminho_34" data-name="Caminho 34" d="M133.53,273.165H104.048c-.419,0-.759.9-.759,2s.34,2,.759,2H133.53c.419,0,.759-.9.759-2S133.949,273.165,133.53,273.165Z" transform="translate(-31.289 230.835)"/>
      <path id="Caminho_35" data-name="Caminho 35" d="M133.53,273.165H104.048c-.419,0-.759.9-.759,2s.34,2,.759,2H133.53c.419,0,.759-.9.759-2S133.949,273.165,133.53,273.165Z" transform="translate(-31.289 238.835)"/>
    </g>
  </g>
</svg>
