<svg xmlns="http://www.w3.org/2000/svg" width="120.021" height="96" viewBox="0 0 120.021 96">
  <g id="Grupo_10" data-name="Grupo 10" transform="translate(-247.979 -592)">
    <g id="Grupo_5" data-name="Grupo 5">
      <g id="Caminho_32" data-name="Caminho 32" transform="translate(248 592)" fill="none">
        <path d="M20.913,0H68A20,20,0,0,1,88,20V68A20,20,0,0,1,68,88H20A20,20,0,0,1,0,68V20s-.337-1,1.663-4,8.05-7.437,8.05-7.437Z" stroke="#FFF"/>
        <path  fill="#FFF" d="M 22.266357421875 4 L 12.14189910888672 11.740234375 L 12.11031341552734 11.76438140869141 L 12.07825469970703 11.78789520263672 C 9.8028564453125 13.45683288574219 6.099639892578125 16.55538177490234 4.990699768066406 18.21880340576172 C 4.357536315917969 19.16855621337891 4.09765625 19.74314880371094 3.999992370605469 19.99734497070313 L 3.999992370605469 20 L 3.999992370605469 68 C 3.999992370605469 72.27375793457031 5.664283752441406 76.29170989990234 8.686286926269531 79.31370544433594 C 11.70828247070313 82.33570861816406 15.72623443603516 84 19.99999237060547 84 L 67.99999237060547 84 C 72.27374267578125 84 76.29170227050781 82.33570861816406 79.31369781494141 79.31370544433594 C 82.33570098876953 76.29170989990234 83.99999237060547 72.27375793457031 83.99999237060547 68 L 83.99999237060547 20 C 83.99999237060547 15.72624969482422 82.33570098876953 11.70829010009766 79.31369781494141 8.686294555664063 C 76.29170227050781 5.664291381835938 72.27374267578125 4 67.99999237060547 4 L 22.266357421875 4 M 20.91249847412109 0 L 67.99999237060547 0 C 79.04568481445313 0 87.99999237060547 8.954307556152344 87.99999237060547 20 L 87.99999237060547 68 C 87.99999237060547 79.04569244384766 79.04568481445313 88 67.99999237060547 88 L 19.99999237060547 88 C 8.954299926757813 88 -7.62939453125e-06 79.04569244384766 -7.62939453125e-06 68 L -7.62939453125e-06 20 C -7.62939453125e-06 20 -0.3375015258789063 19 1.662498474121094 16 C 3.662498474121094 13 9.712501525878906 8.562492370605469 9.712501525878906 8.562492370605469 L 20.91249847412109 0 Z" stroke="none"/>
      </g>
      <path fill="#FFF" id="download" d="M90.887,39.036,77.518,52.409V9.167a9.167,9.167,0,0,0-18.334,0V52.409L45.815,39.036A9.612,9.612,0,1,0,32.223,52.629L67.057,87.463a1.833,1.833,0,0,0,2.592,0l34.834-34.834A9.612,9.612,0,0,0,90.891,39.036Z" transform="translate(260.701 600)"/>
    </g>
    <g id="Grupo_9" data-name="Grupo 9" transform="translate(266 608)">
      <path fill="#FFF" id="Caminho_4" data-name="Caminho 4" d="M285.573,83.793a7.626,7.626,0,0,1,4.285,1.308,2.564,2.564,0,1,0,2.87-4.249,12.795,12.795,0,1,0-7.155,23.4,10.615,10.615,0,0,0,8.41-3.8,2.564,2.564,0,1,0-3.93-3.294,5.5,5.5,0,0,1-4.48,1.971,7.666,7.666,0,1,1,0-15.333Z" transform="translate(-272.779 -78.665)"/>
      <path fill="#FFF" id="Caminho_5" data-name="Caminho 5" d="M365.65,104.251h.021a3.033,3.033,0,0,0,2.85-2.069l6.681-20.11a2.564,2.564,0,0,0-4.866-1.617l-4.728,14.233-4.965-14.3a2.564,2.564,0,0,0-4.844,1.681l7,20.171A3.028,3.028,0,0,0,365.65,104.251Z" transform="translate(-327.333 -78.662)"/>
    </g>
    <path fill="#FFF" id="Caminho_31" data-name="Caminho 31" d="M53.014,19.667a5.852,5.852,0,0,1,2.27-4.51C71.887,1.546,71.457,1.727,72.512,1.13A8.89,8.89,0,0,1,76.916,0c57.421,0,55.694,2.578,0,2.578a5.607,5.607,0,0,0-.995.091V14.405c0,2.45-2.423,4.444-5.4,4.444H56.258a3.179,3.179,0,0,0-.11.819Zm17.506-3.4A2.1,2.1,0,0,0,72.788,14.4V4.4L58.362,16.271Z" transform="translate(194.986 592)"/>
  </g>
</svg>
